<svg id="svg" version="1.1" viewBox="0 0 300 300" width="300" height="300" xmlns="http://www.w3.org/2000/svg">
  <defs>
    <clipPath id="clip-1">
      <rect x="0" y="0" transform="scale(0.15,0.15)" width="2000" height="2000"/>
    </clipPath>
  </defs>
  <g clip-path="url(#clip-1)">
    <path d="M211.977,22.5207c2.109,-0.11085 3.639,0.0891 5.349,1.47225c2.1195,1.7133 3.978,3.71535 5.904,5.6412l9.2055,9.1608l14.3385,14.1573c2.61,2.57445 5.205,5.1207 7.7715,7.75215c2.5575,2.32845 3.0495,6.3906 0.69,9.07845c-1.593,1.8147 -3.633,3.68175 -5.415,5.4198l-10.1055,9.93705l-14.103,14.0745c-2.484,2.4825 -4.9725,5.0265 -7.5315,7.4337c-1.665,1.6095 -3.3135,2.20485 -5.6655,2.08515c-4.128,-0.20985 -7.1445,-4.0962 -6.7965,-8.1108c0.279,-3.21645 3.4125,-5.82465 5.6055,-7.99875l6.1395,-6.1095l8.0535,-8.0811c1.5015,-1.5072 3.5865,-3.7113 5.199,-5.0007l0.192,-0.15195c-3.918,0.2016 -9.192,0.0573 -13.197,0.05775l-24.939,-0.0003l-76.26015,0.00105l-23.86545,-0.00225c-7.2519,-0.00705 -15.7578,-0.82575 -22.293,2.6361c-1.66485,0.97275 -2.8893,1.83855 -4.27575,3.21015c-2.26125,2.2419 -3.93675,5.0052 -4.87905,8.0469c-1.67805,5.5794 -1.2537,12.05085 -1.25085,17.9073l0.0213,17.05755c-0.0183,4.6833 -2.1036,8.64795 -7.52355,8.8695c-3.2796,0.13395 -6.6195,-3.16215 -7.0002,-6.28365c-0.21615,-1.77345 -0.183,-3.5499 -0.1791,-5.44665l0.01155,-7.4736c0.0066,-7.0533 0.0318,-13.9956 0.045,-21.1572c-0.06795,-15.5193 13.164,-29.5239 28.1778,-31.9854c6.87555,-1.1271 16.07745,-0.65325 23.2566,-0.64455l36.18855,0.00525l64.3998,-0.00675l21.1935,-0.0048c4.0605,-0.0003 8.5935,-0.0918 12.6165,0.08325c-5.436,-5.2794 -10.8135,-10.61925 -16.1295,-16.01865c-1.9875,-2.0046 -3.975,-4.01325 -5.9595,-6.0189c-1.392,-1.4061 -2.6475,-2.7456 -3.1215,-4.7262c-1.083,-4.5279 1.9125,-7.8666 6.132,-8.86545z" fill="#C62828"/>
    <path d="M245.5395,151.98c2.676,-0.285 5.181,0.192 7.02,2.346c0.882,1.02 1.4565,2.268 1.656,3.6015c0.234,1.4925 0.1425,3.9765 0.1365,5.565l-0.0105,8.5455l0.012,13.242c0.0015,2.7645 0.099,6.225 -0.192,8.9295c-0.951,8.8755 -5.904,16.9395 -12.738,22.5165c-5.2485,4.323 -11.5935,7.11 -18.33,8.0475c-3.2745,0.4725 -7.236,0.3675 -10.587,0.3675l-13.92,-0.006l-48.3765,0.003l-57.3081,0.0045l-17.6829,0.003c-2.8764,0 -7.2459,0.132 -9.96345,-0.138l16.3785,16.3455c2.4222,2.4165 5.5479,5.208 7.5576,7.8345c3.19905,4.6455 -1.00965,11.0865 -6.39285,11.0025c-4.05285,-0.0645 -5.59695,-2.289 -8.26545,-4.9545l-5.66655,-5.598l-22.21995,-21.8865c-2.6127,-2.619 -6.384,-5.391 -6.52425,-9.345c-0.0924,-2.601 0.942,-4.7235 2.7429,-6.5535c2.8968,-2.9445 5.81925,-5.865 8.72865,-8.799l14.72865,-14.9175l7.3461,-7.41c1.62795,-1.65 3.543,-3.8025 5.3958,-5.112c2.76345,-1.953 6.83895,-1.0245 9.0885,1.239c1.40175,1.383 2.1786,3.279 2.15085,5.247c-0.07155,3.549 -2.4609,5.436 -4.7841,7.743c-6.75195,6.705 -13.3662,13.5735 -20.13675,20.256c3.3927,-0.297 10.1943,-0.102 13.8033,-0.1035h26.2224l83.5176,0.003l19.905,0.0045c8.847,0 17.5155,1.1235 24.75,-5.0535c7.098,-6.0585 5.985,-13.9935 5.976,-22.368l-0.0195,-17.733c-0.0045,-5.211 -0.7005,-11.391 6.0015,-12.8685z" fill="#2E7D32"/>
    <path d="M120.30075,91.39275l0.3222,-0.00795c11.99295,-0.27435 24.9234,-0.0387 36.97755,-0.0381l12.177,0.00225c3.3735,0.00135 8.3175,-0.6336 10.8135,1.9227c3.3495,3.4323 1.8135,9.52095 -3.018,10.56075c-1.3575,0.2925 -2.958,0.13605 -4.3515,0.18435c-4.944,-0.1212 -10.0575,0.19515 -14.9835,-0.081c2.0565,2.06925 4.263,6.87915 4.5645,9.7074c4.2975,-0.00915 8.6205,-0.03495 12.9195,-0.00435c1.947,0.0138 3.6405,0.59205 4.9815,2.0697c1.1685,1.3053 1.749,3.03285 1.608,4.77885c-0.654,7.6221 -10.206,5.2494 -15.2865,5.63175c-1.0095,0.07605 -3.0255,0.0153 -4.002,-0.07785c-0.9015,13.2267 -14.2212,23.622 -26.9916,23.8359l20.4531,20.66235l5.7045,5.7435c0.7365,0.7365 3.036,2.835 3.4515,3.612c2.868,5.3625 -0.4035,9.777 -5.823,10.215c-1.9905,-0.165 -3.2325,-0.5745 -4.7025,-1.995c-2.4945,-2.4135 -4.9275,-4.8915 -7.3743,-7.353l-13.7592,-13.908l-11.3313,-11.4615c-2.226,-2.238 -6.09405,-5.6391 -7.5843,-8.34045c-1.7961,-3.25575 0.3759,-8.27565 4.0968,-9.072c1.6014,-0.41745 3.47025,-0.3753 5.127,-0.321c11.3499,0.37215 21.35685,0.59325 26.3268,-11.5761c-1.28415,0.05685 -2.628,0.02565 -3.91695,0.02355c-8.4783,-0.0132 -16.95765,0.01515 -25.4355,0.00045c-2.0373,-0.0036 -3.80295,-0.50235 -5.2212,-2.0649c-1.14135,-1.2633 -1.707,-2.9439 -1.56195,-4.64025c0.1614,-1.74345 1.0089,-3.3513 2.35605,-4.4697c2.0535,-1.6809 5.75805,-1.30785 8.31795,-1.2996l8.05455,0.0042l10.5927,-0.0102c1.82865,-0.0009 4.2465,-0.08025 6.0009,0.0762c-5.94375,-11.38875 -14.8749,-9.6147 -25.92105,-9.6909c-2.2437,0.0135 -4.7376,0.14325 -6.6987,-1.1475c-2.81235,-1.85115 -3.61005,-6.20325 -1.5543,-8.91225c1.2756,-1.68105 2.7198,-2.22045 4.67175,-2.5593z" fill="#1b6ec4"/>
  </g>
</svg>
